<svg width="30" height="19" viewBox="0 0 30 19" fill="none" xmlns="http://www.w3.org/2000/svg">
<path d="M11.4746 7.11702C18.3583 8.23265 28.045 7.11702 29.1014 7.11639C30.1578 7.11577 30.4326 9.49959 29.1014 9.28957C27.7703 9.07954 18.4746 8.50843 11.4746 9.27573V7.11702Z" fill="black"/>
<path d="M0.111482 9.35868C0.257247 9.35679 8.17454 9.20776 8.17454 9.20776V9.69069C5.02572 9.60229 0.262976 9.54606 0.111482 9.54606C-0.0400112 9.54606 -0.0342828 9.36056 0.111482 9.35868Z" fill="black"/>
<path d="M0.111726 6.38212C0.257492 6.38023 8.17479 6.2312 8.17479 6.2312V6.71413C5.02597 6.62572 0.26322 6.5695 0.111726 6.5695C-0.039767 6.5695 -0.0340386 6.384 0.111726 6.38212Z" fill="black"/>
<path d="M0.111482 7.37418C0.257247 7.37229 8.17454 7.22327 8.17454 7.22327V7.70619C5.02572 7.61779 0.262976 7.56157 0.111482 7.56157C-0.0400112 7.56157 -0.0342828 7.37607 0.111482 7.37418Z" fill="black"/>
<path d="M0.111482 8.36643C0.257247 8.36454 8.17454 8.21552 8.17454 8.21552V8.69844C5.02572 8.61004 0.262976 8.55382 0.111482 8.55382C-0.0400112 8.55382 -0.0342828 8.36832 0.111482 8.36643Z" fill="black"/>
<path d="M8.17456 6.23102C9.59128 6.40526 10.3283 6.57988 11.4746 7.11701V9.27572C10.1616 9.68142 9.43968 9.76557 8.17456 9.69199V9.20781C9.00299 9.04816 8.86232 8.92098 8.17456 8.69847V8.21555C8.92436 8.03764 8.954 7.92647 8.17456 7.70621V7.22391C8.92303 7.06418 8.94419 6.95836 8.17456 6.71395V6.23102Z" fill="black"/>
<path d="M17.9448 0.022522V1.62331C22.231 2.03201 27.5667 1.62331 28.9204 1.62331C30.2742 1.62331 30.4419 0.022522 28.9204 0.022522C27.399 0.022522 17.9448 0.022522 17.9448 0.022522Z" fill="black"/>
<path d="M3.0957 0.0225256C-6.04782 0.0732083 6.91729 2.74963 17.9449 2.70207V0.0225256C17.9449 0.0225256 12.2392 -0.028157 3.0957 0.0225256Z" fill="black"/>
<path d="M11.4749 14.1304C18.3585 15.246 28.0453 14.1304 29.1017 14.1298C30.1581 14.1291 30.4329 16.513 29.1017 16.3029C27.7705 16.0929 18.4749 15.5218 11.4749 16.2891V14.1304Z" fill="black"/>
<ellipse cx="5.93394" cy="15.2241" rx="5.93394" ry="3.47171" fill="black"/>
</svg>
